<svg width="14" height="14" viewBox="0 0 14 14" fill="none" xmlns="http://www.w3.org/2000/svg">
<path d="M10.5 0C10.7461 0 10.9375 0.191406 10.9375 0.4375V3.60938C11.2109 3.77344 11.375 4.04688 11.375 4.375V7.35547L11.8125 7.21875V5.6875C11.8125 5.44141 12.0039 5.25 12.25 5.25H12.6875C12.9336 5.25 13.125 5.44141 13.125 5.6875V7.98438C13.125 8.17578 13.0156 8.33984 12.8242 8.42188L11.375 8.88672V9.625H12.6875C12.9336 9.625 13.125 9.81641 13.125 10.0625V10.5C13.125 10.7461 12.9336 10.9375 12.6875 10.9375H11.4844L12.1133 13.4531C12.1953 13.7266 11.9766 14 11.7031 14H10.0625C9.81641 14 9.625 13.8086 9.625 13.5625V10.9375H9.1875C8.69531 10.9375 8.3125 10.5547 8.3125 10.0625V6.125C8.3125 5.63281 8.69531 5.25 9.1875 5.25V4.375C9.1875 4.04688 9.35156 3.77344 9.625 3.60938V0.875C9.37891 0.875 9.1875 0.683594 9.1875 0.4375C9.1875 0.191406 9.37891 0 9.625 0H10.5ZM5.25 5.6875C5.85156 5.6875 6.45312 5.79688 7 5.98828V14H2.625V8.61328C2.07812 9.24219 1.75 10.0625 1.75 10.9375V12.25C1.75 12.7422 1.36719 13.125 0.875 13.125C0.382812 13.125 0 12.7422 0 12.25V10.9375C0 8.03906 2.35156 5.6875 5.25 5.6875ZM6.78125 2.40625C6.78125 3.5 5.90625 4.375 4.8125 4.375C3.71875 4.375 2.84375 3.5 2.84375 2.40625C2.84375 1.3125 3.71875 0.4375 4.8125 0.4375C5.90625 0.4375 6.78125 1.3125 6.78125 2.40625Z" fill="black"/>
</svg>
