<svg width="12" height="14" viewBox="0 0 12 14" fill="none" xmlns="http://www.w3.org/2000/svg">
<path d="M5.6875 6.5625C3.88281 6.5625 2.40625 5.08594 2.40625 3.28125C2.40625 1.47656 3.88281 0 5.6875 0C7.49219 0 8.96875 1.47656 8.96875 3.28125C8.96875 5.08594 7.49219 6.5625 5.6875 6.5625ZM4.86719 8.09375H6.53516C6.78125 8.09375 7 8.3125 7 8.58594C7 8.69531 6.97266 8.80469 6.89062 8.88672L6.125 9.76172L6.97266 12.9062H7L7.95703 9.13281C8.01172 8.88672 8.25781 8.75 8.47656 8.83203C10.1719 9.46094 11.375 11.1016 11.375 13.043C11.375 13.4531 11.0469 13.7812 10.6367 13.7812H0.738281C0.328125 13.7812 0 13.4531 0 13.043C0 11.1016 1.20312 9.46094 2.89844 8.83203C3.11719 8.75 3.36328 8.88672 3.41797 9.13281L4.375 12.9062H4.40234L5.25 9.76172L4.48438 8.88672C4.42969 8.80469 4.375 8.69531 4.375 8.58594C4.375 8.3125 4.59375 8.09375 4.86719 8.09375Z" fill="black"/>
</svg>
