<svg width="15" height="15" viewBox="0 0 15 15" fill="none" xmlns="http://www.w3.org/2000/svg">
<path d="M6.09766 0.246094L7.30078 1.47656C7.38281 1.55859 7.51953 1.55859 7.60156 1.47656L8.77734 0.246094C8.94141 0.0820312 9.1875 0 9.43359 0.0546875C9.65234 0.136719 9.84375 0.300781 9.89844 0.546875L10.3086 2.1875C10.3359 2.29688 10.4727 2.37891 10.582 2.35156L12.2227 1.88672C12.4414 1.83203 12.6875 1.88672 12.8516 2.05078C13.0156 2.21484 13.0977 2.46094 13.0156 2.70703L12.5781 4.32031C12.5234 4.45703 12.6055 4.56641 12.7148 4.59375L14.3555 5.03125C14.6016 5.08594 14.7656 5.25 14.8477 5.49609C14.9023 5.71484 14.8477 5.96094 14.6562 6.125L13.4531 7.30078C13.3711 7.41016 13.3711 7.54688 13.4531 7.62891L14.6562 8.80469C14.8477 8.96875 14.9023 9.21484 14.8477 9.46094C14.7656 9.67969 14.6016 9.87109 14.3555 9.92578L12.7148 10.3359C12.6055 10.3633 12.5234 10.5 12.5781 10.6094L13.0156 12.25C13.0977 12.4688 13.0156 12.7148 12.8516 12.8789C12.6875 13.043 12.4414 13.125 12.2227 13.043L10.582 12.5781C10.4727 12.5508 10.3359 12.6328 10.3086 12.7422L9.89844 14.3828C9.84375 14.6289 9.65234 14.793 9.43359 14.8477C9.1875 14.9297 8.94141 14.8477 8.77734 14.6836L7.60156 13.4805C7.51953 13.3711 7.38281 13.3711 7.30078 13.4805L6.09766 14.6836C5.93359 14.8477 5.6875 14.9297 5.46875 14.8477C5.25 14.793 5.05859 14.6289 5.00391 14.3828L4.59375 12.7422C4.53906 12.6328 4.42969 12.5508 4.32031 12.5781L2.67969 13.043C2.43359 13.125 2.1875 13.043 2.02344 12.8789C1.85938 12.7148 1.80469 12.4688 1.85938 12.25L2.32422 10.6094C2.35156 10.5 2.29688 10.3633 2.16016 10.3359L0.519531 9.92578C0.300781 9.84375 0.109375 9.67969 0.0546875 9.46094C0 9.21484 0.0546875 8.96875 0.21875 8.80469L1.44922 7.62891C1.53125 7.54688 1.53125 7.38281 1.44922 7.30078L0.21875 6.125C0.0546875 5.96094 0 5.71484 0.0546875 5.49609C0.109375 5.25 0.300781 5.08594 0.519531 5.03125L2.16016 4.59375C2.29688 4.56641 2.35156 4.45703 2.32422 4.32031L1.85938 2.70703C1.80469 2.46094 1.85938 2.21484 2.02344 2.05078C2.1875 1.88672 2.43359 1.83203 2.67969 1.88672L4.32031 2.35156C4.42969 2.37891 4.53906 2.29688 4.59375 2.1875L5.00391 0.546875C5.05859 0.300781 5.22266 0.136719 5.46875 0.0820312C5.6875 0 5.93359 0.0820312 6.09766 0.246094Z" fill="black"/>
</svg>
