<svg width="13" height="15" viewBox="0 0 13 15" fill="none" xmlns="http://www.w3.org/2000/svg">
<path d="M3.74609 0.601562C3.85547 0.246094 4.18359 0 4.56641 0H7.68359C8.06641 0 8.39453 0.246094 8.50391 0.601562L8.75 1.3125H11.375C11.8672 1.3125 12.25 1.69531 12.25 2.1875C12.25 2.67969 11.8672 3.0625 11.375 3.0625H0.875C0.382812 3.0625 0 2.67969 0 2.1875C0 1.69531 0.382812 1.3125 0.875 1.3125H3.5L3.74609 0.601562ZM11.375 4.375L10.8008 13.207C10.7461 13.8906 10.1719 14.4375 9.48828 14.4375H2.76172C2.07812 14.4375 1.50391 13.8906 1.44922 13.207L0.875 4.375H11.375Z" fill="black"/>
</svg>
