<svg width="15" height="15" viewBox="0 0 15 15" fill="none" xmlns="http://www.w3.org/2000/svg">
<path d="M9.67969 0.574219C10.0352 0.21875 10.5547 0 11.0742 0C11.5938 0 12.1133 0.21875 12.4688 0.574219L13.4531 1.55859C13.8086 1.91406 14.0273 2.43359 14.0273 2.95312C14.0273 3.47266 13.8086 3.99219 13.4531 4.34766L12.2227 5.57812L8.44922 1.80469L9.67969 0.574219ZM7.51953 2.73438L11.293 6.50781L5.41406 12.3867C5.11328 12.6875 4.75781 12.9062 4.34766 13.0156L0.875 13.9727C0.628906 14.0547 0.382812 13.9727 0.21875 13.8086C0.0546875 13.6445 0 13.3984 0.0546875 13.1797L1.01172 9.67969C1.12109 9.26953 1.33984 8.91406 1.64062 8.61328L7.51953 2.73438Z" fill="black"/>
</svg>
