<svg width="12" height="16" viewBox="0 0 12 16" fill="none" xmlns="http://www.w3.org/2000/svg">
<path d="M7.10938 0C7.92969 0 8.64062 0.683594 8.64062 1.53125C8.64062 2.37891 7.92969 3.0625 7.10938 3.0625C6.26172 3.0625 5.57812 2.37891 5.57812 1.53125C5.57812 0.683594 6.26172 0 7.10938 0ZM3.47266 5.6875C3.36328 5.6875 3.28125 5.74219 3.25391 5.82422L2.65234 7.32812C2.48828 7.76562 1.96875 7.98438 1.53125 7.82031C1.06641 7.62891 0.847656 7.13672 1.03906 6.67188L1.64062 5.16797C1.94141 4.42969 2.65234 3.9375 3.47266 3.9375H6.125C6.89062 3.9375 7.62891 4.34766 8.01172 5.03125L8.91406 6.5625H10.582C11.0742 6.5625 11.457 6.94531 11.457 7.4375C11.457 7.92969 11.0742 8.3125 10.582 8.3125H8.91406C8.28516 8.3125 7.71094 7.98438 7.41016 7.4375L7.13672 6.97266L6.5625 8.91406L8.61328 9.51562C9.37891 9.73438 9.76172 10.582 9.43359 11.3203L7.90234 14.793C7.71094 15.2305 7.19141 15.4219 6.75391 15.2305C6.28906 15.0391 6.09766 14.5195 6.28906 14.082L7.65625 11.0469L5.03125 10.2539C4.12891 10.0078 3.60938 9.07812 3.82812 8.17578L4.45703 5.6875H3.47266ZM3.25391 10.6367C3.60938 11.0469 4.07422 11.3477 4.64844 11.5117L4.78516 11.5664L4.59375 12.0859C4.42969 12.5234 4.15625 12.9336 3.77344 13.2344L1.53125 15.0938C1.14844 15.3945 0.601562 15.3398 0.300781 14.9844C0 14.6016 0.0546875 14.0547 0.410156 13.7539L2.67969 11.8945C2.78906 11.7852 2.87109 11.6484 2.92578 11.5117L3.25391 10.6367Z" fill="black"/>
</svg>
