<svg width="16" height="15" viewBox="0 0 16 15" fill="none" xmlns="http://www.w3.org/2000/svg">
<path d="M1.75 0H5.85156C6.31641 0 6.75391 0.191406 7.08203 0.519531L9.98047 3.41797C10.3086 3.74609 10.5 4.21094 10.5 4.67578V7.32812L6.89062 10.9375C6.45312 11.375 6.17969 11.9219 6.04297 12.5234L5.74219 14H1.75C0.792969 14 0 13.207 0 12.25V1.75C0 0.792969 0.792969 0 1.75 0ZM8.91406 4.8125L5.6875 1.61328V4.15625C5.6875 4.51172 5.98828 4.8125 6.34375 4.8125H8.91406ZM7.32812 12.7695C7.41016 12.4414 7.57422 12.1133 7.82031 11.8672L11.0742 8.61328L13.2617 10.8008L10.0078 14.0547C9.76172 14.3008 9.46094 14.4648 9.10547 14.5469L7.49219 14.875C7.46484 14.875 7.4375 14.875 7.41016 14.875C7.19141 14.875 7 14.6836 7 14.4648C7 14.4375 7 14.4102 7 14.4102L7.32812 12.7695ZM14.6562 9.40625L13.8633 10.1992L11.6758 8.01172L12.4688 7.21875C13.0703 6.61719 14.0547 6.61719 14.6562 7.21875C15.2578 7.82031 15.2578 8.80469 14.6562 9.40625Z" fill="black"/>
</svg>
