<svg width="17" height="17" viewBox="0 0 17 17" fill="none" xmlns="http://www.w3.org/2000/svg">
<path d="M10.9375 7.10938C11.2656 7 11.6211 7.16406 11.7578 7.46484L12.2773 8.50391C12.5508 8.53125 12.8242 8.61328 13.0977 8.72266L14.0547 8.09375C14.3281 7.90234 14.7109 7.92969 14.957 8.17578L15.4766 8.69531C15.7227 8.94141 15.7773 9.32422 15.5859 9.625L14.9297 10.5547C14.9844 10.6914 15.0391 10.8281 15.0664 10.9648C15.1211 11.1016 15.1484 11.2383 15.1484 11.375L16.1875 11.8945C16.4883 12.0586 16.6523 12.3867 16.5703 12.7148L16.3789 13.4531C16.2969 13.7812 15.9688 14 15.6406 13.9727L14.4922 13.8906C14.3008 14.1367 14.1094 14.3281 13.8906 14.4922L13.9727 15.6406C13.9727 15.9961 13.7539 16.2969 13.4258 16.4062L12.7148 16.5977C12.3867 16.6797 12.0312 16.5156 11.8672 16.2148L11.375 15.1758C11.0742 15.1484 10.8008 15.0664 10.5547 14.957L9.59766 15.5859C9.29688 15.7773 8.91406 15.75 8.69531 15.5039L8.14844 14.9844C7.90234 14.7383 7.875 14.3555 8.06641 14.082L8.69531 13.125C8.64062 12.9883 8.61328 12.8516 8.55859 12.7148C8.53125 12.5781 8.50391 12.4414 8.47656 12.3047L7.46484 11.7852C7.13672 11.6211 7 11.293 7.08203 10.9648L7.27344 10.2266C7.35547 9.89844 7.65625 9.67969 8.01172 9.70703L9.16016 9.78906C9.32422 9.54297 9.54297 9.35156 9.76172 9.1875L9.67969 8.03906C9.65234 7.68359 9.89844 7.38281 10.2266 7.30078L10.9375 7.10938ZM11.8125 10.6367C11.1562 10.6367 10.6094 11.1836 10.6094 11.8398C10.6094 12.4961 11.1562 13.043 11.8398 13.043C12.4961 13.043 13.0156 12.4961 13.0156 11.8398C13.0156 11.1836 12.4961 10.6367 11.8125 10.6367ZM5.71484 0.0820312L6.42578 0.273438C6.75391 0.382812 6.97266 0.683594 6.97266 1.03906L6.89062 2.1875C7.10938 2.35156 7.32812 2.54297 7.49219 2.78906L8.64062 2.70703C8.96875 2.67969 9.29688 2.89844 9.37891 3.22656L9.57031 3.96484C9.65234 4.29297 9.51562 4.62109 9.1875 4.78516L8.17578 5.30469C8.14844 5.44141 8.12109 5.57812 8.09375 5.71484C8.03906 5.85156 7.98438 5.98828 7.95703 6.125L8.58594 7.08203C8.77734 7.35547 8.72266 7.73828 8.50391 7.98438L7.95703 8.50391C7.71094 8.75 7.35547 8.77734 7.05469 8.58594L6.09766 7.95703C5.85156 8.06641 5.55078 8.14844 5.27734 8.17578L4.78516 9.21484C4.62109 9.51562 4.26562 9.67969 3.9375 9.59766L3.22656 9.40625C2.89844 9.29688 2.67969 8.99609 2.67969 8.64062L2.76172 7.49219C2.54297 7.32812 2.32422 7.13672 2.16016 6.89062L1.01172 6.97266C0.683594 7 0.355469 6.78125 0.273438 6.45312L0.0820312 5.71484C0 5.38672 0.136719 5.05859 0.464844 4.89453L1.47656 4.375C1.50391 4.23828 1.53125 4.10156 1.55859 3.96484C1.61328 3.82812 1.64062 3.69141 1.69531 3.55469L1.06641 2.625C0.875 2.32422 0.929688 1.94141 1.14844 1.69531L1.69531 1.17578C1.94141 0.929688 2.29688 0.902344 2.59766 1.09375L3.55469 1.72266C3.80078 1.61328 4.10156 1.53125 4.375 1.50391L4.86719 0.464844C5.03125 0.164062 5.38672 0 5.71484 0.0820312ZM4.8125 3.63672C4.15625 3.63672 3.60938 4.18359 3.60938 4.83984C3.60938 5.49609 4.15625 6.04297 4.8125 6.04297C5.49609 6.04297 6.01562 5.49609 6.01562 4.83984C6.01562 4.18359 5.49609 3.63672 4.8125 3.63672Z" fill="black"/>
</svg>
