<svg width="11" height="14" viewBox="0 0 11 14" fill="none" xmlns="http://www.w3.org/2000/svg">
<path d="M0 1.75C0 0.792969 0.792969 0 1.75 0H5.85156C6.31641 0 6.75391 0.191406 7.08203 0.519531L9.98047 3.41797C10.3086 3.74609 10.5 4.21094 10.5 4.67578V12.25C10.5 13.207 9.70703 14 8.75 14H1.75C0.792969 14 0 13.207 0 12.25V1.75ZM5.6875 1.61328V4.15625C5.6875 4.51172 5.98828 4.8125 6.34375 4.8125H8.91406L5.6875 1.61328ZM3.28125 7C2.92578 7 2.625 7.30078 2.625 7.65625C2.625 8.01172 2.92578 8.3125 3.28125 8.3125H7.21875C7.57422 8.3125 7.875 8.01172 7.875 7.65625C7.875 7.30078 7.57422 7 7.21875 7H3.28125ZM3.28125 9.625C2.92578 9.625 2.625 9.92578 2.625 10.2812C2.625 10.6367 2.92578 10.9375 3.28125 10.9375H7.21875C7.57422 10.9375 7.875 10.6367 7.875 10.2812C7.875 9.92578 7.57422 9.625 7.21875 9.625H3.28125Z" fill="black"/>
</svg>
