<svg width="14" height="15" viewBox="0 0 14 15" fill="none" xmlns="http://www.w3.org/2000/svg">
<path d="M4 0C4.5625 0 5 0.4375 5 1V2H9V1C9 0.4375 9.4375 0 10 0C10.5625 0 11 0.4375 11 1V2H12C13.0938 2 14 2.90625 14 4V13C14 14.0938 13.0938 15 12 15H2C0.90625 15 0 14.0938 0 13V4C0 2.90625 0.90625 2 2 2H3V1C3 0.4375 3.4375 0 4 0ZM2 7.5V8.5C2 8.78125 2.21875 9 2.5 9H3.5C3.78125 9 4 8.78125 4 8.5V7.5C4 7.21875 3.78125 7 3.5 7H2.5C2.21875 7 2 7.21875 2 7.5ZM6 7.5V8.5C6 8.78125 6.21875 9 6.5 9H7.5C7.78125 9 8 8.78125 8 8.5V7.5C8 7.21875 7.78125 7 7.5 7H6.5C6.21875 7 6 7.21875 6 7.5ZM10.5 7C10.2188 7 10 7.21875 10 7.5V8.5C10 8.78125 10.2188 9 10.5 9H11.5C11.7812 9 12 8.78125 12 8.5V7.5C12 7.21875 11.7812 7 11.5 7H10.5ZM2 11.5V12.5C2 12.7812 2.21875 13 2.5 13H3.5C3.78125 13 4 12.7812 4 12.5V11.5C4 11.2188 3.78125 11 3.5 11H2.5C2.21875 11 2 11.2188 2 11.5ZM6.5 11C6.21875 11 6 11.2188 6 11.5V12.5C6 12.7812 6.21875 13 6.5 13H7.5C7.78125 13 8 12.7812 8 12.5V11.5C8 11.2188 7.78125 11 7.5 11H6.5ZM10 11.5V12.5C10 12.7812 10.2188 13 10.5 13H11.5C11.7812 13 12 12.7812 12 12.5V11.5C12 11.2188 11.7812 11 11.5 11H10.5C10.2188 11 10 11.2188 10 11.5Z" fill="#333333"/>
</svg>
